<svg width="50" height="50" xmlns="http://www.w3.org/2000/svg">

 <g>
  <title>background</title>
  <rect fill="none" id="canvas_background" height="402" width="582" y="-1" x="-1"/>
 </g>
 <g>
  <title>Layer 1</title>
  <rect id="svg_1" width="50" height="50" fill="none"/>
  <path id="svg_2" stroke-width="2" stroke-miterlimit="10" stroke-linecap="round" stroke="#77a1d3" fill="none" d="m47,8c0,0 -27.648,0 -29,0c-1.469,0 -2.484,-4 -4,-4l-11,0c-1.104,0 -2,0.896 -2,2l0,4l0,30l0,4c0,1.104 0.896,2 2,2l44,0c1.104,0 2,-0.896 2,-2l0,-34c0,-1.104 -0.896,-2 -2,-2z"/>
  <path id="svg_3" stroke-width="2" stroke-miterlimit="10" stroke-linecap="round" stroke="#77a1d3" fill="none" d="m1,27.081806l0,-11c0,-1.104 0.896,-2 2,-2l44,0c1.104,0 2,0.896 2,2l0,11"/>
 </g>
</svg>